<svg width="290" height="86" viewBox="0 0 290 86" fill="none" xmlns="http://www.w3.org/2000/svg">
<path fill-rule="evenodd" clip-rule="evenodd" d="M42.4872 19.3961C29.4511 19.3961 18.8833 29.9639 18.8833 43C18.8833 56.036 29.4511 66.6039 42.4872 66.6039C55.5232 66.6039 66.091 56.036 66.091 43C66.091 29.9639 55.5232 19.3961 42.4872 19.3961ZM29.7464 35.3556C29.7464 31.4111 32.9628 28.2288 36.8884 28.2477C39.1508 28.2585 41.1651 29.324 42.4601 30.9813C37.4434 31.9148 33.6357 36.2493 33.6357 41.5247C33.6357 41.581 33.6359 41.6371 33.6361 41.693C31.3323 40.5193 29.7464 38.1253 29.7464 35.3556ZM33.6361 41.693C33.6365 41.7948 33.6373 41.8961 33.6385 41.9967L33.6357 41.9941V57.6183H42.219V51.1774C42.8826 51.2063 43.5966 51.2079 44.3648 51.1809C50.2902 51.1653 55.4052 46.3691 55.0938 40.4519C54.7976 34.8226 49.7302 30.7367 44.3648 30.7957C43.7148 30.8028 43.0782 30.8662 42.4601 30.9813C43.4013 32.1859 43.9624 33.7032 43.9624 35.3556C43.9624 39.2811 40.7952 42.4447 36.8884 42.4635C35.7193 42.4691 34.6131 42.1908 33.6361 41.693Z" fill="#685BC7"/>
<path d="M75.5325 34.7549H79.1965L80.4385 39.102H80.0659V48.2309H80.4385V60.0923H75.5325V34.7549ZM85.3445 53.3854C83.7299 53.3854 82.3015 53.0127 81.1216 52.2675C79.9417 51.5223 79.0102 50.4045 78.327 49.0382C77.6439 47.6099 77.3334 45.9332 77.3334 43.8838C77.3334 41.8966 77.6439 40.2198 78.327 38.7915C79.0102 37.3632 79.9417 36.3074 81.1216 35.5001C82.3015 34.6928 83.7299 34.3202 85.3445 34.3202C87.0213 34.3202 88.4496 34.7549 89.6916 35.5622C90.9336 36.3695 91.9273 37.4874 92.6104 38.9157C93.2935 40.344 93.6661 42.0208 93.6661 43.8838C93.6661 45.7469 93.2935 47.4236 92.6104 48.8519C91.9273 50.2803 90.9336 51.3981 89.6295 52.2054C88.4496 53.0127 86.9591 53.3854 85.3445 53.3854ZM84.4751 48.914C85.7171 48.914 86.7107 48.4172 87.5802 47.5478C88.3875 46.6163 88.8222 45.3743 88.8222 43.9459C88.8222 42.4555 88.3875 41.2135 87.5802 40.2819C86.7728 39.3504 85.7171 38.8536 84.4751 38.8536C83.2331 38.8536 82.1773 39.3504 81.37 40.2198C80.5627 41.1514 80.128 42.3934 80.128 43.8838C80.128 45.3743 80.5627 46.5542 81.37 47.4857C82.2394 48.4172 83.2331 48.914 84.4751 48.914Z" fill="#685BC7"/>
<path d="M102.547 53.3853C101.181 53.3853 100.063 53.199 99.2557 52.7643C98.4484 52.3296 97.8273 51.7707 97.3926 51.0876C96.9579 50.4045 96.6474 49.5972 96.5232 48.6656C96.399 47.7341 96.2748 46.8026 96.2748 45.809V34.7549H101.181V45.809C101.181 46.9268 101.429 47.672 101.926 48.0446C102.423 48.4172 102.982 48.6035 103.665 48.6035C104.286 48.6035 104.907 48.4793 105.528 48.293C106.149 48.0446 106.77 47.7341 107.329 47.2994C107.888 46.8647 108.322 46.3679 108.695 45.809L109.316 48.3551H108.136V34.7549H113.042V52.9506H109.378L108.385 49.473L109.937 49.5351C109.316 50.2803 108.633 50.9013 107.826 51.5223C107.018 52.1433 106.211 52.578 105.342 52.8885C104.41 53.2612 103.479 53.3853 102.547 53.3853Z" fill="#685BC7"/>
<path d="M128.07 34.3202C129.312 34.3202 130.306 34.5065 131.051 34.9412C131.796 35.3759 132.355 35.9348 132.79 36.68C133.163 37.4253 133.411 38.2326 133.535 39.102C133.66 40.0335 133.722 40.965 133.722 41.8966V52.9506H128.816V41.8966C128.816 40.7787 128.567 40.0335 128.195 39.6609C127.76 39.2883 127.201 39.102 126.518 39.102C125.897 39.102 125.276 39.2262 124.593 39.4746C123.972 39.723 123.351 40.0335 122.792 40.4682C122.233 40.903 121.736 41.3998 121.363 41.9587L120.742 39.4125H121.984V52.9506H117.078V34.7549H120.742L121.736 38.2326L120.184 38.1705C120.805 37.4253 121.55 36.7421 122.419 36.1832C123.226 35.6243 124.158 35.1275 125.09 34.817C126.083 34.5065 127.077 34.3202 128.07 34.3202Z" fill="#685BC7"/>
<path d="M136.454 39.2262V34.6928H148.129V39.2262H136.454ZM145.335 53.3233C143.471 53.3233 141.981 52.8265 140.925 51.8328C139.87 50.8392 139.311 49.2867 139.311 47.1131V34.9412L139.249 34.6928L140.242 30.4078H144.217V46.3058C144.217 47.1131 144.403 47.672 144.776 48.0446C145.148 48.4173 145.645 48.6036 146.266 48.6036C146.639 48.6036 147.011 48.6036 147.322 48.4794C147.632 48.4173 147.943 48.3552 148.191 48.293V52.8265C147.819 52.9507 147.384 53.0749 146.949 53.137C146.452 53.2612 145.893 53.3233 145.335 53.3233Z" fill="#685BC7"/>
<path d="M160.115 53.3854C158.252 53.3854 156.575 52.9506 155.147 52.1433C153.719 51.336 152.601 50.2182 151.794 48.7898C150.986 47.3615 150.614 45.6848 150.614 43.8217C150.614 41.9587 150.986 40.2819 151.794 38.8536C152.601 37.4253 153.719 36.3074 155.147 35.5001C156.575 34.6928 158.252 34.2581 160.115 34.2581C161.978 34.2581 163.655 34.6928 165.083 35.5001C166.512 36.3074 167.629 37.4253 168.437 38.8536C169.244 40.2819 169.617 41.9587 169.617 43.8217C169.617 45.6848 169.244 47.3615 168.437 48.7898C167.629 50.2182 166.512 51.336 165.083 52.1433C163.655 53.0127 161.978 53.3854 160.115 53.3854ZM160.115 48.6656C161.481 48.6656 162.537 48.2309 163.407 47.2994C164.276 46.43 164.649 45.2501 164.649 43.8217C164.649 42.3934 164.214 41.2135 163.407 40.344C162.537 39.4746 161.481 38.9778 160.115 38.9778C158.749 38.9778 157.693 39.4125 156.886 40.2819C156.079 41.1514 155.644 42.3313 155.644 43.7596C155.644 45.188 156.079 46.3679 156.886 47.2373C157.693 48.2309 158.749 48.6656 160.115 48.6656Z" fill="#685BC7"/>
<path d="M178.869 53.4475C177.503 53.4475 176.137 53.137 174.895 52.578C173.653 52.0191 172.535 51.0255 171.541 49.5972L174.522 46.9889C175.33 47.8583 176.075 48.5414 176.82 48.914C177.565 49.2867 178.373 49.473 179.304 49.473C179.925 49.473 180.422 49.3488 180.795 49.0382C181.167 48.7277 181.353 48.3551 181.353 47.9204C181.353 47.6099 181.229 47.3615 181.043 47.1131C180.857 46.8647 180.484 46.6163 179.925 46.43C179.366 46.1816 178.621 45.9953 177.565 45.7469C175.702 45.2501 174.274 44.5669 173.342 43.6975C172.411 42.8281 171.914 41.6482 171.914 40.0956C171.914 39.0399 172.162 38.0463 172.721 37.1769C173.28 36.3074 174.025 35.6243 175.081 35.0654C176.137 34.5686 177.317 34.2581 178.745 34.2581C180.422 34.2581 181.85 34.5686 183.03 35.2517C184.21 35.8727 185.142 36.68 185.887 37.6116L182.72 40.2819C182.223 39.7851 181.664 39.3504 180.919 38.9778C180.174 38.6052 179.304 38.4189 178.31 38.4189C177.752 38.4189 177.255 38.5431 176.882 38.7915C176.447 39.0399 176.261 39.4125 176.261 39.8472C176.261 40.2819 176.51 40.6545 176.944 40.965C177.379 41.2756 178.31 41.5861 179.615 41.8966C181.85 42.3934 183.465 43.1386 184.396 44.008C185.328 44.8774 185.825 46.1195 185.825 47.6099C185.825 48.7898 185.514 49.8456 184.893 50.715C184.272 51.5844 183.403 52.2675 182.409 52.7643C181.353 53.199 180.174 53.4475 178.869 53.4475Z" fill="#685BC7"/>
<path d="M188.93 34.7549H192.594L193.836 39.102H193.463V48.2309H193.836V60.0923H188.93V34.7549ZM198.68 53.3854C197.065 53.3854 195.637 53.0127 194.457 52.2675C193.277 51.5223 192.345 50.4045 191.662 49.0382C190.979 47.6099 190.669 45.9332 190.669 43.8838C190.669 41.8966 190.979 40.2198 191.662 38.7915C192.345 37.3632 193.277 36.3074 194.457 35.5001C195.637 34.6928 197.065 34.3202 198.68 34.3202C200.356 34.3202 201.785 34.7549 203.089 35.5622C204.331 36.3695 205.325 37.4874 206.008 38.9157C206.691 40.344 207.063 42.0208 207.063 43.8838C207.063 45.7469 206.691 47.4236 206.008 48.8519C205.325 50.2803 204.331 51.3981 203.027 52.2054C201.847 53.0127 200.356 53.3854 198.68 53.3854ZM197.872 48.914C199.114 48.914 200.17 48.4172 200.977 47.5478C201.785 46.6784 202.219 45.3743 202.219 43.9459C202.219 42.4555 201.785 41.2135 200.977 40.2819C200.17 39.3504 199.114 38.8536 197.872 38.8536C196.63 38.8536 195.575 39.3504 194.767 40.2198C193.96 41.1514 193.525 42.3934 193.525 43.8838C193.525 45.3743 193.96 46.5542 194.767 47.4857C195.637 48.4172 196.63 48.914 197.872 48.914Z" fill="#685BC7"/>
<path d="M218.18 53.3854C216.317 53.3854 214.64 52.9506 213.212 52.1433C211.784 51.336 210.666 50.2182 209.858 48.7898C209.051 47.3615 208.678 45.6848 208.678 43.8217C208.678 41.9587 209.051 40.2819 209.858 38.8536C210.666 37.4253 211.784 36.3074 213.212 35.5001C214.64 34.6928 216.317 34.2581 218.18 34.2581C220.043 34.2581 221.72 34.6928 223.148 35.5001C224.576 36.3074 225.694 37.4253 226.502 38.8536C227.309 40.2819 227.682 41.9587 227.682 43.8217C227.682 45.6848 227.309 47.3615 226.502 48.7898C225.694 50.2182 224.576 51.336 223.148 52.1433C221.72 53.0127 220.105 53.3854 218.18 53.3854ZM218.18 48.6656C219.546 48.6656 220.602 48.2309 221.471 47.2994C222.341 46.43 222.713 45.2501 222.713 43.8217C222.713 42.3934 222.279 41.2135 221.471 40.344C220.602 39.4746 219.546 38.9778 218.18 38.9778C216.814 38.9778 215.758 39.4125 214.951 40.2819C214.143 41.1514 213.709 42.3313 213.709 43.7596C213.709 45.188 214.143 46.3679 214.951 47.2373C215.758 48.2309 216.876 48.6656 218.18 48.6656Z" fill="#685BC7"/>
<path d="M230.352 29.1037C230.352 28.2343 230.6 27.4891 231.159 26.9302C231.718 26.3712 232.401 26.0607 233.332 26.0607C234.202 26.0607 234.947 26.3712 235.506 26.9302C236.065 27.4891 236.313 28.2343 236.313 29.1037C236.313 29.9731 236.065 30.6562 235.506 31.2152C234.947 31.7741 234.264 32.0225 233.332 32.0225C232.463 32.0225 231.718 31.7741 231.159 31.2152C230.6 30.6562 230.352 29.911 230.352 29.1037ZM235.754 52.9507H230.848V34.7549H235.754V52.9507Z" fill="#685BC7"/>
<path d="M250.969 34.3202C252.211 34.3202 253.205 34.5065 253.95 34.9412C254.695 35.3759 255.254 35.9348 255.689 36.68C256.123 37.4253 256.31 38.2326 256.434 39.102C256.558 40.0335 256.62 40.965 256.62 41.8966V52.9506H251.714V41.8966C251.714 40.7787 251.466 40.0335 251.093 39.6609C250.658 39.2883 250.099 39.102 249.416 39.102C248.795 39.102 248.174 39.2262 247.491 39.4746C246.87 39.723 246.249 40.0335 245.69 40.4682C245.131 40.903 244.635 41.3998 244.262 41.9587L243.641 39.4125H244.883V52.9506H239.977V34.7549H243.641L244.635 38.2326L243.082 38.1705C243.703 37.4253 244.448 36.7421 245.318 36.1832C246.125 35.6243 247.056 35.1275 247.988 34.817C248.92 34.5065 249.913 34.3202 250.969 34.3202Z" fill="#685BC7"/>
<path d="M259.291 39.2262V34.6928H270.966V39.2262H259.291ZM268.172 53.3233C266.309 53.3233 264.818 52.8265 263.762 51.8328C262.707 50.8392 262.148 49.2867 262.148 47.1131V34.9412L262.086 34.6928L263.079 30.4078H267.054V46.3058C267.054 47.1131 267.24 47.672 267.613 48.0446C267.985 48.4173 268.482 48.6036 269.103 48.6036C269.476 48.6036 269.848 48.6036 270.159 48.4794C270.469 48.4173 270.78 48.3552 271.028 48.293V52.8265C270.656 52.9507 270.221 53.0749 269.786 53.137C269.29 53.2612 268.731 53.3233 268.172 53.3233Z" fill="#685BC7"/>
</svg>
